<svg xmlns="http://www.w3.org/2000/svg" width="180" height="180"><rect x="0" y="0" width="100%" height="100%" fill="rgb(149,58,124)"></rect><circle cx="0" cy="0" r="30" fill="#222" opacity="0.046"></circle><circle cx="180" cy="0" r="30" fill="#222" opacity="0.046"></circle><circle cx="0" cy="180" r="30" fill="#222" opacity="0.046"></circle><circle cx="180" cy="180" r="30" fill="#222" opacity="0.046"></circle><circle cx="30" cy="0" r="30" fill="#222" opacity="0.15"></circle><circle cx="30" cy="180" r="30" fill="#222" opacity="0.15"></circle><circle cx="60" cy="0" r="30" fill="#222" opacity="0.046"></circle><circle cx="60" cy="180" r="30" fill="#222" opacity="0.046"></circle><circle cx="90" cy="0" r="30" fill="#ddd" opacity="0.05466666666666667"></circle><circle cx="90" cy="180" r="30" fill="#ddd" opacity="0.05466666666666667"></circle><circle cx="120" cy="0" r="30" fill="#ddd" opacity="0.10666666666666667"></circle><circle cx="120" cy="180" r="30" fill="#ddd" opacity="0.10666666666666667"></circle><circle cx="150" cy="0" r="30" fill="#222" opacity="0.06333333333333334"></circle><circle cx="150" cy="180" r="30" fill="#222" opacity="0.06333333333333334"></circle><circle cx="0" cy="30" r="30" fill="#ddd" opacity="0.10666666666666667"></circle><circle cx="180" cy="30" r="30" fill="#ddd" opacity="0.10666666666666667"></circle><circle cx="30" cy="30" r="30" fill="#ddd" opacity="0.14133333333333334"></circle><circle cx="60" cy="30" r="30" fill="#ddd" opacity="0.12400000000000001"></circle><circle cx="90" cy="30" r="30" fill="#222" opacity="0.028666666666666667"></circle><circle cx="120" cy="30" r="30" fill="#222" opacity="0.028666666666666667"></circle><circle cx="150" cy="30" r="30" fill="#ddd" opacity="0.02"></circle><circle cx="0" cy="60" r="30" fill="#ddd" opacity="0.03733333333333333"></circle><circle cx="180" cy="60" r="30" fill="#ddd" opacity="0.03733333333333333"></circle><circle cx="30" cy="60" r="30" fill="#ddd" opacity="0.03733333333333333"></circle><circle cx="60" cy="60" r="30" fill="#222" opacity="0.028666666666666667"></circle><circle cx="90" cy="60" r="30" fill="#222" opacity="0.15"></circle><circle cx="120" cy="60" r="30" fill="#222" opacity="0.028666666666666667"></circle><circle cx="150" cy="60" r="30" fill="#ddd" opacity="0.03733333333333333"></circle><circle cx="0" cy="90" r="30" fill="#ddd" opacity="0.14133333333333334"></circle><circle cx="180" cy="90" r="30" fill="#ddd" opacity="0.14133333333333334"></circle><circle cx="30" cy="90" r="30" fill="#222" opacity="0.15"></circle><circle cx="60" cy="90" r="30" fill="#ddd" opacity="0.12400000000000001"></circle><circle cx="90" cy="90" r="30" fill="#222" opacity="0.028666666666666667"></circle><circle cx="120" cy="90" r="30" fill="#ddd" opacity="0.08933333333333333"></circle><circle cx="150" cy="90" r="30" fill="#ddd" opacity="0.07200000000000001"></circle><circle cx="0" cy="120" r="30" fill="#ddd" opacity="0.05466666666666667"></circle><circle cx="180" cy="120" r="30" fill="#ddd" opacity="0.05466666666666667"></circle><circle cx="30" cy="120" r="30" fill="#ddd" opacity="0.03733333333333333"></circle><circle cx="60" cy="120" r="30" fill="#ddd" opacity="0.07200000000000001"></circle><circle cx="90" cy="120" r="30" fill="#222" opacity="0.06333333333333334"></circle><circle cx="120" cy="120" r="30" fill="#ddd" opacity="0.05466666666666667"></circle><circle cx="150" cy="120" r="30" fill="#222" opacity="0.028666666666666667"></circle><circle cx="0" cy="150" r="30" fill="#222" opacity="0.13266666666666665"></circle><circle cx="180" cy="150" r="30" fill="#222" opacity="0.13266666666666665"></circle><circle cx="30" cy="150" r="30" fill="#222" opacity="0.13266666666666665"></circle><circle cx="60" cy="150" r="30" fill="#222" opacity="0.028666666666666667"></circle><circle cx="90" cy="150" r="30" fill="#222" opacity="0.13266666666666665"></circle><circle cx="120" cy="150" r="30" fill="#222" opacity="0.15"></circle><circle cx="150" cy="150" r="30" fill="#ddd" opacity="0.05466666666666667"></circle></svg>